HIERARCHY
ROOT Hips
{
  OFFSET 48.5577 84.0192 11.6562
  CHANNELS 6 Xposition Yposition Zposition Zrotation Xrotation Yrotation
  JOINT spine
  {
    OFFSET 0 5.95438 0.342407
    CHANNELS 3 Zrotation Xrotation Yrotation
    JOINT spine1
    {
      OFFSET 0 8.85602 0
      CHANNELS 3 Zrotation Xrotation Yrotation
      JOINT spine2
      {
        OFFSET 0 8.48567 0
        CHANNELS 3 Zrotation Xrotation Yrotation
        JOINT Neck
        {
          OFFSET 0 21.7863 1.0387
          CHANNELS 3 Zrotation Xrotation Yrotation
          JOINT Head
          {
            OFFSET 0 6.5822 0
            CHANNELS 3 Zrotation Xrotation Yrotation
            End Site
            {
              OFFSET 0 15.9326 -5.25436
            }
          }
        }
        JOINT RightShoulder
        {
          OFFSET -3.57307 9.16386 -0.497525
          CHANNELS 3 Zrotation Xrotation Yrotation
          JOINT RightArm
          {
            OFFSET 0 12.0192 0
            CHANNELS 3 Zrotation Xrotation Yrotation
            JOINT RightArmRoll
            {
              OFFSET 0 6.06754 0
              CHANNELS 3 Zrotation Xrotation Yrotation
              JOINT RightForeArm
              {
                OFFSET 0 17.6726 0
                CHANNELS 3 Zrotation Xrotation Yrotation
                JOINT RightForeArmRoll
                {
                  OFFSET 0 6.80872 0
                  CHANNELS 3 Zrotation Xrotation Yrotation
                  JOINT RightHand
                  {
                    OFFSET 0 13.6636 0
                    CHANNELS 3 Zrotation Xrotation Yrotation
                    End Site
                    {
                      OFFSET 0 0 0
                    }
                  }
                }
              }
            }
          }
        }
        JOINT LeftShoulder
        {
          OFFSET 3.57307 9.16386 -0.497525
          CHANNELS 3 Zrotation Xrotation Yrotation
          JOINT LeftArm
          {
            OFFSET 0 12.0192 0
            CHANNELS 3 Zrotation Xrotation Yrotation
            JOINT LeftArmRoll
            {
              OFFSET 0 6.06754 0
              CHANNELS 3 Zrotation Xrotation Yrotation
              JOINT LeftForeArm
              {
                OFFSET 0 17.6726 0
                CHANNELS 3 Zrotation Xrotation Yrotation
                JOINT LeftForeArmRoll
                {
                  OFFSET 0 6.80872 0
                  CHANNELS 3 Zrotation Xrotation Yrotation
                  JOINT LeftHand
                  {
                    OFFSET 0 13.6636 0
                    CHANNELS 3 Zrotation Xrotation Yrotation
                    End Site
                    {
                      OFFSET 0 0 0
                    }
                  }
                }
              }
            }
          }
        }
      }
    }
  }
  JOINT RightUpLeg
  {
    OFFSET -5.27774 -0.967797 -0.811858
    CHANNELS 3 Zrotation Xrotation Yrotation
    JOINT RightUpLegRoll
    {
      OFFSET 0 16.0214 0
      CHANNELS 3 Zrotation Xrotation Yrotation
      JOINT RightLeg
      {
        OFFSET 0 -19.8401 0
        CHANNELS 3 Zrotation Xrotation Yrotation
        JOINT RightLegRoll
        {
          OFFSET 0 19.905 0
          CHANNELS 3 Zrotation Xrotation Yrotation
          JOINT RightFoot
          {
            OFFSET 0 16.5675 0
            CHANNELS 3 Zrotation Xrotation Yrotation
            JOINT RightToeBase
            {
              OFFSET 0 13.8496 0
              CHANNELS 3 Zrotation Xrotation Yrotation
              End Site
              {
                OFFSET 0.00587034 6.70727 -0.773117
              }
            }
          }
        }
      }
    }
  }
  JOINT LeftUpLeg
  {
    OFFSET 5.27774 -0.967797 -0.811858
    CHANNELS 3 Zrotation Xrotation Yrotation
    JOINT LeftUpLegRoll
    {
      OFFSET 0 16.0215 0
      CHANNELS 3 Zrotation Xrotation Yrotation
      JOINT LeftLeg
      {
        OFFSET 0 19.84 0
        CHANNELS 3 Zrotation Xrotation Yrotation
        JOINT LeftLegRoll
        {
          OFFSET 0 20.089 0
          CHANNELS 3 Zrotation Xrotation Yrotation
          JOINT LeftFoot
          {
            OFFSET 0 16.3835 0
            CHANNELS 3 Zrotation Xrotation Yrotation
            JOINT LeftToeBase
            {
              OFFSET 0 13.8496 0
              CHANNELS 3 Zrotation Xrotation Yrotation
              End Site
              {
                OFFSET -0.0263083 6.70727 -0.773117
              }
            }
          }
        }
      }
    }
  }
}
MOTION
Frames: 9
Frame Time: 0.00208333
51.2229 83.2337 13.6753 -9.42181 -0.172186 98.5183 -0.985197 -3.78122 -0.114089 -1.97194 -3.54568 -0.17293 -1.9685 -1.90119 -0.138626 -32.6538 -33.8597 -20.8127 21.2447 16.8526 -18.9 59.5479 4.41467 2.73504 17.0629 53.664 68.0518 3.93138e-007 -2.87303e-005 7.83933e-006 -6.69372 66.6506 1.78505 -8.98366e-006 1.80516e-005 -2.9992 8.03003 -4.95095 0.697559 -75.4598 -15.7809 8.8686 -94.2592 31.3994 -0.246407 2.26095e-006 3.6787e-006 -8.18814e-006 3.64251 -0.0269629 1.99253 4.09488e-005 1.86979e-006 3.01159 -8.03012 -4.9514 -0.697629 -175.033 7.50478 -3.80819 180 7.01563e-015 178.994 -177.019 11.2901 179.096 -2.93115e-006 2.77036e-007 0.384405 -20.5938 70.224 21.5881 8.26329 26.6398 -4.56867 177.269 27.3104 6.11721 4.54188e-006 -4.6773e-006 -0.702943 0.855211 -17.8543 0.782612 3.88482e-006 2.74377e-007 -0.20415 18.7597 68.1761 -19.6867 -8.13649 25.2327 3.48755 
51.2003 83.2256 13.6874 -9.46531 -0.074724 98.3019 -0.998739 -3.79607 -0.113369 -1.99892 -3.57376 -0.170418 -1.99548 -1.92928 -0.135885 -33.2585 -33.8361 -20.9792 21.9056 16.8539 -19.0432 59.1162 4.93103 3.12474 16.2783 53.7189 68.6374 3.93138e-007 -2.87303e-005 7.83933e-006 -6.34682 64.6191 1.41585 -8.98366e-006 1.80516e-005 -2.99916 8.03003 -4.95095 0.697559 -75.9604 -15.97 8.92598 -93.571 31.6171 -0.796938 2.26095e-006 3.6787e-006 -8.18814e-006 3.64149 -0.0269355 1.99252 4.09488e-005 1.86979e-006 3.01159 -8.03012 -4.9514 -0.697629 -175.148 7.50954 -3.75599 180 7.01563e-015 178.996 -177.016 11.2294 179.099 -2.93115e-006 2.77036e-007 0.382635 -20.5929 70.2226 21.5862 8.25908 26.6062 -4.54292 177.228 27.2568 6.13069 4.54188e-006 -4.6773e-006 -0.701942 0.835724 -17.8082 0.776478 3.88482e-006 2.74377e-007 -0.203154 18.751 68.1642 -19.6769 -8.13649 25.2327 3.48755 
51.1828 83.2237 13.6796 -9.50787 0.017486 98.0901 -1.0119 -3.8099 -0.112515 -2.02512 -3.59995 -0.167639 -2.02168 -1.95549 -0.132884 -33.8499 -33.8229 -21.1468 22.5471 16.8637 -19.1852 58.6668 5.42813 3.50914 15.4455 53.7839 69.2564 3.93138e-007 -2.87303e-005 7.83933e-006 -6.04496 62.5195 1.09345 -8.98366e-006 1.80516e-005 -2.99915 8.03003 -4.95095 0.697559 -76.4514 -16.1551 8.98138 -92.8972 31.8344 -1.33398 2.26095e-006 3.6787e-006 -8.18814e-006 3.64068 -0.0269313 1.99252 4.09488e-005 1.86979e-006 3.01159 -8.03012 -4.9514 -0.697629 -175.261 7.51681 -3.70459 180 7.01564e-015 178.997 -177.012 11.1728 179.102 -2.93115e-006 2.77036e-007 0.381197 -20.5939 70.2231 21.5863 8.25476 26.5711 -4.51594 177.186 27.2047 6.14443 4.54188e-006 -4.6773e-006 -0.700908 0.816436 -17.7613 0.770318 3.88482e-006 2.74377e-007 -0.202011 18.7413 68.151 -19.6661 -8.13649 25.2327 3.48755 
51.1538 83.2175 13.6619 -9.55 0.103793 97.886 -1.02457 -3.82246 -0.111495 -2.05036 -3.62375 -0.164543 -2.04692 -1.9793 -0.129569 -34.4242 -33.8246 -21.3166 23.1627 16.8851 -19.3264 58.1989 5.89919 3.88449 14.5566 53.862 69.9149 3.93138e-007 -2.87303e-005 7.83933e-006 -5.77958 60.3449 0.809775 -8.98366e-006 1.80516e-005 -2.99919 8.03003 -4.95095 0.697559 -76.929 -16.335 9.03447 -92.2438 32.0527 -1.85193 2.26095e-006 3.6787e-006 -8.18814e-006 3.64015 -0.0269555 1.99253 4.09488e-005 1.86979e-006 3.01159 -8.03012 -4.9514 -0.697629 -175.372 7.52818 -3.65498 180 7.01564e-015 178.999 -177.008 11.1224 179.105 -2.93115e-006 2.77036e-007 0.380259 -20.5977 70.2266 21.5895 8.25031 26.5338 -4.48727 177.146 27.156 6.15888 4.54188e-006 -4.6773e-006 -0.699825 0.797736 -17.7133 0.764195 3.88482e-006 2.74377e-007 -0.200667 18.7302 68.136 -19.6537 -8.13649 25.2327 3.48755 
51.1424 83.2142 13.6607 -9.59227 0.183778 97.6932 -1.03669 -3.83346 -0.110279 -2.07445 -3.64466 -0.161079 -2.07102 -2.00022 -0.125889 -34.978 -33.8454 -21.4898 23.7458 16.9215 -19.4668 57.7116 6.33746 4.24699 13.6033 53.9556 70.6194 3.93138e-007 -2.87303e-005 7.83933e-006 -5.54394 58.0883 0.558604 -8.98366e-006 1.80516e-005 -2.99929 8.03003 -4.95095 0.697559 -77.3896 -16.5083 9.08493 -91.6169 32.2731 -2.34514 2.26095e-006 3.6787e-006 -8.18814e-006 3.63995 -0.0270129 1.99253 4.09488e-005 1.86979e-006 3.01159 -8.03012 -4.9514 -0.697629 -175.477 7.54527 -3.60815 180 7.01564e-015 179.001 -177.004 11.0803 179.108 -2.93115e-006 2.77036e-007 0.37999 -20.6053 70.2341 21.5968 8.24569 26.4938 -4.45648 177.105 27.112 6.17449 4.54188e-006 -4.6773e-006 -0.698673 0.780015 -17.6645 0.758169 3.88482e-006 2.74377e-007 -0.199066 18.7172 68.1188 -19.6393 -8.13649 25.2327 3.48755 
51.1326 83.2167 13.6724 -9.6352 0.257236 97.5151 -1.04814 -3.84263 -0.108836 -2.09721 -3.66219 -0.157197 -2.0938 -2.01776 -0.12179 -35.5078 -33.8897 -21.6675 24.2898 16.9761 -19.6067 57.2045 6.73626 4.5928 12.577 54.0669 71.3768 3.93138e-007 -2.87303e-005 7.83933e-006 -5.33266 55.7427 0.334999 -8.98366e-006 1.80516e-005 -2.99945 8.03003 -4.95095 0.697559 -77.8294 -16.6737 9.13242 -91.0228 32.4971 -2.80796 2.26095e-006 3.6787e-006 -8.18814e-006 3.64013 -0.0271086 1.99254 4.09488e-005 1.86979e-006 3.01159 -8.03012 -4.9514 -0.697629 -175.577 7.56967 -3.56508 180 7.01565e-015 179.002 -177 11.0487 179.109 -2.93115e-006 2.77036e-007 0.380557 -20.6178 70.2466 21.6092 8.24087 26.4505 -4.42312 177.063 27.0746 6.1917 4.54188e-006 -4.6773e-006 -0.697435 0.763662 -17.6147 0.752302 3.88482e-006 2.74377e-007 -0.197154 18.7021 68.0987 -19.6226 -8.13649 25.2327 3.48755 
51.1099 83.2131 13.6653 -9.6794 0.324147 97.3551 -1.05884 -3.8497 -0.107135 -2.11845 -3.67583 -0.152846 -2.11507 -2.03142 -0.11722 -36.0102 -33.9617 -21.8511 24.7882 17.0521 -19.7462 56.6772 7.08894 4.91799 11.4684 54.1978 72.1947 3.93138e-007 -2.87303e-005 7.83933e-006 -5.14135 53.3011 0.134969 -8.98366e-006 1.80516e-005 -2.99969 8.03003 -4.95095 0.697559 -78.2449 -16.83 9.17659 -90.4676 32.7262 -3.23467 2.26095e-006 3.6787e-006 -8.18814e-006 3.64074 -0.0272475 1.99254 4.09488e-005 1.86979e-006 3.01159 -8.03012 -4.9514 -0.697629 -175.67 7.60301 -3.52678 180 7.01565e-015 179.004 -176.994 11.0296 179.11 -2.93115e-006 2.77036e-007 0.382128 -20.6359 70.2649 21.6278 8.23582 26.4033 -4.38674 177.022 27.0453 6.21097 4.54188e-006 -4.6773e-006 -0.696092 0.749067 -17.5638 0.746655 3.88482e-006 2.74377e-007 -0.194876 18.6844 68.0754 -19.603 -8.13649 25.2327 3.48755 
51.129 83.2147 13.7024 -9.72547 0.384647 97.2166 -1.06869 -3.85441 -0.105146 -2.13799 -3.6851 -0.147975 -2.13465 -2.0407 -0.112125 -36.4818 -34.0657 -22.0418 25.2345 17.1529 -19.8856 56.1296 7.38887 5.21861 10.2677 54.3499 73.0812 3.93138e-007 -2.87303e-005 7.83933e-006 -4.96635 50.7565 -0.0447842 -8.98366e-006 1.80516e-005 -3.00001 8.03003 -4.95095 0.697559 -78.6323 -16.9757 9.21712 -89.9578 32.9618 -3.61953 2.26095e-006 3.6787e-006 -8.18814e-006 3.64185 -0.0274347 1.99256 4.09488e-005 1.86979e-006 3.01159 -8.03012 -4.9514 -0.697629 -175.753 7.64689 -3.49422 180 7.01565e-015 179.005 -176.988 11.0254 179.11 -2.93115e-006 2.77036e-007 0.384871 -20.6608 70.2901 21.6535 8.23052 26.3516 -4.34691 176.981 27.0256 6.23275 4.54188e-006 -4.6773e-006 -0.694626 0.73662 -17.512 0.741288 3.88482e-006 2.74377e-007 -0.192179 18.6638 68.0483 -19.5803 -8.13649 25.2327 3.48755 
51.1099 83.225 13.6939 -9.77106 0.440629 97.0956 -1.07761 -3.85624 -0.102802 -2.15564 -3.68902 -0.142422 -2.15234 -2.04463 -0.106351 -36.926 -34.2017 -22.2413 25.6323 17.2774 -20.0255 55.5634 7.6437 5.50056 8.88162 54.5267 74.1096 3.93138e-007 -2.87303e-005 7.83933e-006 -4.7968 47.9952 -0.2137 -8.98366e-006 1.80516e-005 -3.00043 8.03003 -4.95095 0.697559 -78.9958 -17.1128 9.25397 -89.491 33.2053 -3.96501 2.26095e-006 3.6787e-006 -8.18814e-006 3.64369 -0.0276811 1.99257 4.09488e-005 1.86979e-006 3.01159 -8.03012 -4.9514 -0.697629 -175.829 7.69865 -3.46597 180 7.01565e-015 179.006 -176.981 11.035 179.108 -2.93115e-006 2.77036e-007 0.388697 -20.692 70.3217 21.686 8.2248 26.2935 -4.30216 176.94 27.0123 6.25604 4.54188e-006 -4.6773e-006 -0.693102 0.726001 -17.4591 0.736124 3.88482e-006 2.74377e-007 -0.18905 18.6401 68.0173 -19.5543 -8.13649 25.2327 3.48755 
